<svg viewBox="0 0 819 400" xmlns="http://www.w3.org/2000/svg"><g><g><g><g><g><line x1="50" y1="372.8226804590142" x2="45" y2="372.8226804590142" style="visibility: inherit;" fill="rgb(0, 0, 0)" stroke="rgb(204, 204, 204)" stroke-width="1px"></line><line x1="50" y1="343.92642182574986" x2="45" y2="343.92642182574986" style="visibility: inherit;" fill="rgb(0, 0, 0)" stroke="rgb(204, 204, 204)" stroke-width="1px"></line><line x1="50" y1="315.0301631924854" x2="45" y2="315.0301631924854" style="visibility: inherit;" fill="rgb(0, 0, 0)" stroke="rgb(204, 204, 204)" stroke-width="1px"></line><line x1="50" y1="286.13390455922104" x2="45" y2="286.13390455922104" style="visibility: inherit;" fill="rgb(0, 0, 0)" stroke="rgb(204, 204, 204)" stroke-width="1px"></line><line x1="50" y1="257.2376459259567" x2="45" y2="257.2376459259567" style="visibility: inherit;" fill="rgb(0, 0, 0)" stroke="rgb(204, 204, 204)" stroke-width="1px"></line><line x1="50" y1="228.34138729269227" x2="45" y2="228.34138729269227" style="visibility: inherit;" fill="rgb(0, 0, 0)" stroke="rgb(204, 204, 204)" stroke-width="1px"></line><line x1="50" y1="199.44512865942795" x2="45" y2="199.44512865942795" style="visibility: inherit;" fill="rgb(0, 0, 0)" stroke="rgb(204, 204, 204)" stroke-width="1px"></line><line x1="50" y1="170.54887002616354" x2="45" y2="170.54887002616354" style="visibility: inherit;" fill="rgb(0, 0, 0)" stroke="rgb(204, 204, 204)" stroke-width="1px"></line><line x1="50" y1="141.6526113928992" x2="45" y2="141.6526113928992" style="visibility: inherit;" fill="rgb(0, 0, 0)" stroke="rgb(204, 204, 204)" stroke-width="1px"></line><line x1="50" y1="112.75635275963478" x2="45" y2="112.75635275963478" style="visibility: inherit;" fill="rgb(0, 0, 0)" stroke="rgb(204, 204, 204)" stroke-width="1px"></line><line x1="50" y1="83.86009412637041" x2="45" y2="83.86009412637041" style="visibility: inherit;" fill="rgb(0, 0, 0)" stroke="rgb(204, 204, 204)" stroke-width="1px"></line><line x1="50" y1="54.963835493106004" x2="45" y2="54.963835493106004" style="visibility: inherit;" fill="rgb(0, 0, 0)" stroke="rgb(204, 204, 204)" stroke-width="1px"></line><line x1="50" y1="26.067576859841637" x2="45" y2="26.067576859841637" style="visibility: inherit;" fill="rgb(0, 0, 0)" stroke="rgb(204, 204, 204)" stroke-width="1px"></line></g><g transform="translate(40, 0)"><text x="0" y="372.8226804590142" dx="0em" dy="0.3em" style="text-anchor: end; visibility: hidden; font-family: Roboto, sans-serif; font-size: 12px; font-weight: 200;" fill="rgb(50, 49, 63)" stroke="none" stroke-width="1px">0.3</text><text x="0" y="343.92642182574986" dx="0em" dy="0.3em" style="text-anchor: end; visibility: inherit; font-family: Roboto, sans-serif; font-size: 12px; font-weight: 200;" fill="rgb(50, 49, 63)" stroke="none" stroke-width="1px">0.35</text><text x="0" y="315.0301631924854" dx="0em" dy="0.3em" style="text-anchor: end; visibility: inherit; font-family: Roboto, sans-serif; font-size: 12px; font-weight: 200;" fill="rgb(50, 49, 63)" stroke="none" stroke-width="1px">0.4</text><text x="0" y="286.13390455922104" dx="0em" dy="0.3em" style="text-anchor: end; visibility: inherit; font-family: Roboto, sans-serif; font-size: 12px; font-weight: 200;" fill="rgb(50, 49, 63)" stroke="none" stroke-width="1px">0.45</text><text x="0" y="257.2376459259567" dx="0em" dy="0.3em" style="text-anchor: end; visibility: inherit; font-family: Roboto, sans-serif; font-size: 12px; font-weight: 200;" fill="rgb(50, 49, 63)" stroke="none" stroke-width="1px">0.5</text><text x="0" y="228.34138729269227" dx="0em" dy="0.3em" style="text-anchor: end; visibility: inherit; font-family: Roboto, sans-serif; font-size: 12px; font-weight: 200;" fill="rgb(50, 49, 63)" stroke="none" stroke-width="1px">0.55</text><text x="0" y="199.44512865942795" dx="0em" dy="0.3em" style="text-anchor: end; visibility: inherit; font-family: Roboto, sans-serif; font-size: 12px; font-weight: 200;" fill="rgb(50, 49, 63)" stroke="none" stroke-width="1px">0.6</text><text x="0" y="170.54887002616354" dx="0em" dy="0.3em" style="text-anchor: end; visibility: inherit; font-family: Roboto, sans-serif; font-size: 12px; font-weight: 200;" fill="rgb(50, 49, 63)" stroke="none" stroke-width="1px">0.65</text><text x="0" y="141.6526113928992" dx="0em" dy="0.3em" style="text-anchor: end; visibility: inherit; font-family: Roboto, sans-serif; font-size: 12px; font-weight: 200;" fill="rgb(50, 49, 63)" stroke="none" stroke-width="1px">0.7</text><text x="0" y="112.75635275963478" dx="0em" dy="0.3em" style="text-anchor: end; visibility: inherit; font-family: Roboto, sans-serif; font-size: 12px; font-weight: 200;" fill="rgb(50, 49, 63)" stroke="none" stroke-width="1px">0.75</text><text x="0" y="83.86009412637041" dx="0em" dy="0.3em" style="text-anchor: end; visibility: inherit; font-family: Roboto, sans-serif; font-size: 12px; font-weight: 200;" fill="rgb(50, 49, 63)" stroke="none" stroke-width="1px">0.8</text><text x="0" y="54.963835493106004" dx="0em" dy="0.3em" style="text-anchor: end; visibility: inherit; font-family: Roboto, sans-serif; font-size: 12px; font-weight: 200;" fill="rgb(50, 49, 63)" stroke="none" stroke-width="1px">0.85</text><text x="0" y="26.067576859841637" dx="0em" dy="0.3em" style="text-anchor: end; visibility: inherit; font-family: Roboto, sans-serif; font-size: 12px; font-weight: 200;" fill="rgb(50, 49, 63)" stroke="none" stroke-width="1px">0.9</text></g><line x1="50" y1="0" x2="50" y2="378" fill="rgb(0, 0, 0)" stroke="rgb(204, 204, 204)" stroke-width="1px"></line></g></g><g transform="translate(50, 0)" clip-path="url(#clip_0)"><clipPath id="clip_0"><rect width="769" height="378"></rect></clipPath><g><g><g><line x1="67.41459635396232" y1="0" x2="67.41459635396232" y2="378" fill="rgb(0, 0, 0)" stroke="rgb(60, 60, 60)" stroke-width="1px" opacity="0.25"></line><line x1="175.1894869089797" y1="0" x2="175.1894869089797" y2="378" fill="rgb(0, 0, 0)" stroke="rgb(60, 60, 60)" stroke-width="1px" opacity="0.25"></line><line x1="282.96437746399704" y1="0" x2="282.96437746399704" y2="378" fill="rgb(0, 0, 0)" stroke="rgb(60, 60, 60)" stroke-width="1px" opacity="0.25"></line><line x1="390.7392680190144" y1="0" x2="390.7392680190144" y2="378" fill="rgb(0, 0, 0)" stroke="rgb(60, 60, 60)" stroke-width="1px" opacity="0.25"></line><line x1="498.51415857403174" y1="0" x2="498.51415857403174" y2="378" fill="rgb(0, 0, 0)" stroke="rgb(60, 60, 60)" stroke-width="1px" opacity="0.25"></line><line x1="606.2890491290491" y1="0" x2="606.2890491290491" y2="378" fill="rgb(0, 0, 0)" stroke="rgb(60, 60, 60)" stroke-width="1px" opacity="0.25"></line><line x1="714.0639396840666" y1="0" x2="714.0639396840666" y2="378" fill="rgb(0, 0, 0)" stroke="rgb(60, 60, 60)" stroke-width="1px" opacity="0.25"></line></g><g><line x1="0" y1="372.8226804590142" x2="769" y2="372.8226804590142" fill="rgb(0, 0, 0)" stroke="rgb(60, 60, 60)" stroke-width="1px" opacity="0.25"></line><line x1="0" y1="343.92642182574986" x2="769" y2="343.92642182574986" fill="rgb(0, 0, 0)" stroke="rgb(60, 60, 60)" stroke-width="1px" opacity="0.25"></line><line x1="0" y1="315.0301631924854" x2="769" y2="315.0301631924854" fill="rgb(0, 0, 0)" stroke="rgb(60, 60, 60)" stroke-width="1px" opacity="0.25"></line><line x1="0" y1="286.13390455922104" x2="769" y2="286.13390455922104" fill="rgb(0, 0, 0)" stroke="rgb(60, 60, 60)" stroke-width="1px" opacity="0.25"></line><line x1="0" y1="257.2376459259567" x2="769" y2="257.2376459259567" fill="rgb(0, 0, 0)" stroke="rgb(60, 60, 60)" stroke-width="1px" opacity="0.25"></line><line x1="0" y1="228.34138729269227" x2="769" y2="228.34138729269227" fill="rgb(0, 0, 0)" stroke="rgb(60, 60, 60)" stroke-width="1px" opacity="0.25"></line><line x1="0" y1="199.44512865942795" x2="769" y2="199.44512865942795" fill="rgb(0, 0, 0)" stroke="rgb(60, 60, 60)" stroke-width="1px" opacity="0.25"></line><line x1="0" y1="170.54887002616354" x2="769" y2="170.54887002616354" fill="rgb(0, 0, 0)" stroke="rgb(60, 60, 60)" stroke-width="1px" opacity="0.25"></line><line x1="0" y1="141.6526113928992" x2="769" y2="141.6526113928992" fill="rgb(0, 0, 0)" stroke="rgb(60, 60, 60)" stroke-width="1px" opacity="0.25"></line><line x1="0" y1="112.75635275963478" x2="769" y2="112.75635275963478" fill="rgb(0, 0, 0)" stroke="rgb(60, 60, 60)" stroke-width="1px" opacity="0.25"></line><line x1="0" y1="83.86009412637041" x2="769" y2="83.86009412637041" fill="rgb(0, 0, 0)" stroke="rgb(60, 60, 60)" stroke-width="1px" opacity="0.25"></line><line x1="0" y1="54.963835493106004" x2="769" y2="54.963835493106004" fill="rgb(0, 0, 0)" stroke="rgb(60, 60, 60)" stroke-width="1px" opacity="0.25"></line><line x1="0" y1="26.067576859841637" x2="769" y2="26.067576859841637" fill="rgb(0, 0, 0)" stroke="rgb(60, 60, 60)" stroke-width="1px" opacity="0.25"></line></g></g></g><g><g><line x1="0" y1="546.2002322586004" x2="769" y2="546.2002322586004" fill="rgb(0, 0, 0)" stroke="rgb(153, 153, 153)" stroke-width="1.5px"></line></g></g><g><g><line x1="67.41459635396232" y1="0" x2="67.41459635396232" y2="378" fill="rgb(0, 0, 0)" stroke="rgb(153, 153, 153)" stroke-width="1.5px"></line></g></g><g><g><g><g><g><path stroke="rgb(0, 119, 187)" stroke-width="2px" d="M67.41459635396232,143.8187160846772L78.19208540946407,131.18316853551727L88.96957446496579,99.44392117662368L99.74706352046752,266.4134548865214L110.52455257596927,308.0806275416086L121.30204163147101,331.0953391860172L132.07953068697273,177.21259182433457L142.85701974247448,225.34796841053242L153.6345087979762,229.2589802452074L164.41199785347794,404.50176781175406L175.1894869089797,104.55830536949499L185.9669759644814,126.2192144991766L196.74446501998315,99.29349102009294L207.52195407548487,260.3965242014905L218.29944313098662,84.10076859800972L229.07693218648834,64.84663863174538L239.8544212419901,81.99484974765383L250.63191029749183,55.520416738162254L261.40939935299355,105.912107884222L272.1868884084953,54.01618406690454L282.96437746399704,57.7767312980242L293.7418665194988,49.50348605313138L304.5193555750005,49.20262574006999L315.2968446305022,49.0521955835393L326.07433368600397,51.91026521654865L336.8518227415057,46.79588102367735L347.62931179700746,49.0521955835393L358.4068008525092,434.1350963202918L369.1842899080109,131.93528487114608L379.96177896351264,55.520416738162254L390.7392680190144,49.50348605313138L401.51675707451614,51.15814888091978L412.2942461300179,51.75983506001796L423.0717351855196,46.79588102367735L433.8492242410213,52.060660926054716L444.6267132965231,44.539532016790766L455.40420235202475,145.47334446544096L466.18169140752656,44.84035788282752L476.9591804630283,42.132752853373454L487.73666951853,40.026834003017605L498.51415857403174,133.28908738587316L509.2916476295335,67.25338334813802L520.0691366850352,67.55424366119941L530.846625740537,51.60940490348727L541.6241147960387,64.99703434125144L552.4016038515405,57.32547527545675L563.1790929070421,45.89333453151778L573.9565819625439,45.14121819588891L584.7340710180457,41.53106667427531L595.5115600735473,62.89111549089555" style="fill: none;" fill="none"></path></g><g><path stroke="rgb(255, 112, 67)" stroke-width="2px" d="M67.41459635396232,162.70450401664277L78.19208540946407,80.06068376207057L88.96957446496579,60.41740575863486L99.74706352046752,47.68809340844984L110.52455257596927,47.49422555386894L121.30204163147101,46.52498962203837L132.07953068697273,46.91269088417554L142.85701974247448,42.64804589471596L153.6345087979762,37.02642926426402L164.41199785347794,44.06957125985274L175.1894869089797,50.9835024660788L185.9669759644814,48.26962807814328L196.74446501998315,48.26962807814328L207.52195407548487,52.72810647515908L218.29944313098662,47.62347079025622L229.07693218648834,44.909596402320695L239.8544212419901,38.64185693100632L250.63191029749183,36.50951721276424L261.40939935299355,42.32496725077245L272.1868884084953,43.42341397196567L282.96437746399704,36.83259585670775L293.7418665194988,34.89412399304657L304.5193555750005,31.340224462643082L315.2968446305022,29.66020862473179L326.07433368600397,29.337129980788283L336.8518227415057,26.881746065627283L347.62931179700746,25.00786237313509L358.4068008525092,27.91560461565151L369.1842899080109,59.70666029957881L379.96177896351264,61.838965570796255L390.7392680190144,55.4419808630946L401.51675707451614,53.826587643376975L412.2942461300179,59.125091182860736L423.0717351855196,53.245052973683535L433.8492242410213,44.521895140183524L444.6267132965231,39.8049262703932L455.40420235202475,43.2295805644094L466.18169140752656,48.528084103893164L476.9591804630283,40.5803287946675L487.73666951853,37.09105188245768L498.51415857403174,46.072665741707574L509.2916476295335,64.16513869659461L520.0691366850352,57.38048717378046L530.846625740537,57.70356581772396L541.6241147960387,60.675896231409375L552.4016038515405,53.50350899943342L563.1790929070421,47.558848172062596L573.9565819625439,42.71263406588499L584.7340710180457,40.70953958403015L595.5115600735473,41.22648608255456" style="fill: none;" fill="none"></path></g></g></g></g></g></g><g transform="translate(50, 378)" clip-path="url(#clip_1)"><clipPath id="clip_1"><rect width="769" height="22"></rect></clipPath><g><g><line x1="67.41459635396232" y1="0" x2="67.41459635396232" y2="5" style="visibility: inherit;" fill="rgb(0, 0, 0)" stroke="rgb(204, 204, 204)" stroke-width="1px"></line><line x1="175.1894869089797" y1="0" x2="175.1894869089797" y2="5" style="visibility: inherit;" fill="rgb(0, 0, 0)" stroke="rgb(204, 204, 204)" stroke-width="1px"></line><line x1="282.96437746399704" y1="0" x2="282.96437746399704" y2="5" style="visibility: inherit;" fill="rgb(0, 0, 0)" stroke="rgb(204, 204, 204)" stroke-width="1px"></line><line x1="390.7392680190144" y1="0" x2="390.7392680190144" y2="5" style="visibility: inherit;" fill="rgb(0, 0, 0)" stroke="rgb(204, 204, 204)" stroke-width="1px"></line><line x1="498.51415857403174" y1="0" x2="498.51415857403174" y2="5" style="visibility: inherit;" fill="rgb(0, 0, 0)" stroke="rgb(204, 204, 204)" stroke-width="1px"></line><line x1="606.2890491290491" y1="0" x2="606.2890491290491" y2="5" style="visibility: inherit;" fill="rgb(0, 0, 0)" stroke="rgb(204, 204, 204)" stroke-width="1px"></line><line x1="714.0639396840666" y1="0" x2="714.0639396840666" y2="5" style="visibility: inherit;" fill="rgb(0, 0, 0)" stroke="rgb(204, 204, 204)" stroke-width="1px"></line></g><g transform="translate(0, 8)"><text x="67.41459635396232" y="0" dx="0em" dy="0.95em" style="text-anchor: middle; visibility: inherit; font-family: Roboto, sans-serif; font-size: 12px; font-weight: 200;" fill="rgb(50, 49, 63)" stroke="none" stroke-width="1px">0</text><text x="175.1894869089797" y="0" dx="0em" dy="0.95em" style="text-anchor: middle; visibility: inherit; font-family: Roboto, sans-serif; font-size: 12px; font-weight: 200;" fill="rgb(50, 49, 63)" stroke="none" stroke-width="1px">10</text><text x="282.96437746399704" y="0" dx="0em" dy="0.95em" style="text-anchor: middle; visibility: inherit; font-family: Roboto, sans-serif; font-size: 12px; font-weight: 200;" fill="rgb(50, 49, 63)" stroke="none" stroke-width="1px">20</text><text x="390.7392680190144" y="0" dx="0em" dy="0.95em" style="text-anchor: middle; visibility: inherit; font-family: Roboto, sans-serif; font-size: 12px; font-weight: 200;" fill="rgb(50, 49, 63)" stroke="none" stroke-width="1px">30</text><text x="498.51415857403174" y="0" dx="0em" dy="0.95em" style="text-anchor: middle; visibility: inherit; font-family: Roboto, sans-serif; font-size: 12px; font-weight: 200;" fill="rgb(50, 49, 63)" stroke="none" stroke-width="1px">40</text><text x="606.2890491290491" y="0" dx="0em" dy="0.95em" style="text-anchor: middle; visibility: inherit; font-family: Roboto, sans-serif; font-size: 12px; font-weight: 200;" fill="rgb(50, 49, 63)" stroke="none" stroke-width="1px">50</text><text x="714.0639396840666" y="0" dx="0em" dy="0.95em" style="text-anchor: middle; visibility: inherit; font-family: Roboto, sans-serif; font-size: 12px; font-weight: 200;" fill="rgb(50, 49, 63)" stroke="none" stroke-width="1px">60</text></g><line x1="0" y1="0" x2="769" y2="0" fill="rgb(0, 0, 0)" stroke="rgb(204, 204, 204)" stroke-width="1px"></line></g></g></g></g></svg>