<svg viewBox="0 0 825 400" xmlns="http://www.w3.org/2000/svg"><g><g><g><g><g><line x1="30" y1="356.2560098561918" x2="25" y2="356.2560098561918" style="visibility: inherit;" fill="rgb(0, 0, 0)" stroke="rgb(204, 204, 204)" stroke-width="1px"></line><line x1="30" y1="322.84521444512706" x2="25" y2="322.84521444512706" style="visibility: inherit;" fill="rgb(0, 0, 0)" stroke="rgb(204, 204, 204)" stroke-width="1px"></line><line x1="30" y1="289.4344190340622" x2="25" y2="289.4344190340622" style="visibility: inherit;" fill="rgb(0, 0, 0)" stroke="rgb(204, 204, 204)" stroke-width="1px"></line><line x1="30" y1="256.0236236229975" x2="25" y2="256.0236236229975" style="visibility: inherit;" fill="rgb(0, 0, 0)" stroke="rgb(204, 204, 204)" stroke-width="1px"></line><line x1="30" y1="222.6128282119327" x2="25" y2="222.6128282119327" style="visibility: inherit;" fill="rgb(0, 0, 0)" stroke="rgb(204, 204, 204)" stroke-width="1px"></line><line x1="30" y1="189.20203280086793" x2="25" y2="189.20203280086793" style="visibility: inherit;" fill="rgb(0, 0, 0)" stroke="rgb(204, 204, 204)" stroke-width="1px"></line><line x1="30" y1="155.79123738980317" x2="25" y2="155.79123738980317" style="visibility: inherit;" fill="rgb(0, 0, 0)" stroke="rgb(204, 204, 204)" stroke-width="1px"></line><line x1="30" y1="122.38044197873839" x2="25" y2="122.38044197873839" style="visibility: inherit;" fill="rgb(0, 0, 0)" stroke="rgb(204, 204, 204)" stroke-width="1px"></line><line x1="30" y1="88.96964656767364" x2="25" y2="88.96964656767364" style="visibility: inherit;" fill="rgb(0, 0, 0)" stroke="rgb(204, 204, 204)" stroke-width="1px"></line><line x1="30" y1="55.558851156608824" x2="25" y2="55.558851156608824" style="visibility: inherit;" fill="rgb(0, 0, 0)" stroke="rgb(204, 204, 204)" stroke-width="1px"></line><line x1="30" y1="22.148055745544056" x2="25" y2="22.148055745544056" style="visibility: inherit;" fill="rgb(0, 0, 0)" stroke="rgb(204, 204, 204)" stroke-width="1px"></line></g><g transform="translate(20, 0)"><text x="0" y="356.2560098561918" dx="0em" dy="0.3em" style="text-anchor: end; visibility: inherit; font-family: Roboto, sans-serif; font-size: 12px; font-weight: 200;" fill="rgb(50, 49, 63)" stroke="none" stroke-width="1px">2</text><text x="0" y="322.84521444512706" dx="0em" dy="0.3em" style="text-anchor: end; visibility: inherit; font-family: Roboto, sans-serif; font-size: 12px; font-weight: 200;" fill="rgb(50, 49, 63)" stroke="none" stroke-width="1px">4</text><text x="0" y="289.4344190340622" dx="0em" dy="0.3em" style="text-anchor: end; visibility: inherit; font-family: Roboto, sans-serif; font-size: 12px; font-weight: 200;" fill="rgb(50, 49, 63)" stroke="none" stroke-width="1px">6</text><text x="0" y="256.0236236229975" dx="0em" dy="0.3em" style="text-anchor: end; visibility: inherit; font-family: Roboto, sans-serif; font-size: 12px; font-weight: 200;" fill="rgb(50, 49, 63)" stroke="none" stroke-width="1px">8</text><text x="0" y="222.6128282119327" dx="0em" dy="0.3em" style="text-anchor: end; visibility: inherit; font-family: Roboto, sans-serif; font-size: 12px; font-weight: 200;" fill="rgb(50, 49, 63)" stroke="none" stroke-width="1px">10</text><text x="0" y="189.20203280086793" dx="0em" dy="0.3em" style="text-anchor: end; visibility: inherit; font-family: Roboto, sans-serif; font-size: 12px; font-weight: 200;" fill="rgb(50, 49, 63)" stroke="none" stroke-width="1px">12</text><text x="0" y="155.79123738980317" dx="0em" dy="0.3em" style="text-anchor: end; visibility: inherit; font-family: Roboto, sans-serif; font-size: 12px; font-weight: 200;" fill="rgb(50, 49, 63)" stroke="none" stroke-width="1px">14</text><text x="0" y="122.38044197873839" dx="0em" dy="0.3em" style="text-anchor: end; visibility: inherit; font-family: Roboto, sans-serif; font-size: 12px; font-weight: 200;" fill="rgb(50, 49, 63)" stroke="none" stroke-width="1px">16</text><text x="0" y="88.96964656767364" dx="0em" dy="0.3em" style="text-anchor: end; visibility: inherit; font-family: Roboto, sans-serif; font-size: 12px; font-weight: 200;" fill="rgb(50, 49, 63)" stroke="none" stroke-width="1px">18</text><text x="0" y="55.558851156608824" dx="0em" dy="0.3em" style="text-anchor: end; visibility: inherit; font-family: Roboto, sans-serif; font-size: 12px; font-weight: 200;" fill="rgb(50, 49, 63)" stroke="none" stroke-width="1px">20</text><text x="0" y="22.148055745544056" dx="0em" dy="0.3em" style="text-anchor: end; visibility: inherit; font-family: Roboto, sans-serif; font-size: 12px; font-weight: 200;" fill="rgb(50, 49, 63)" stroke="none" stroke-width="1px">22</text></g><line x1="30" y1="0" x2="30" y2="378" fill="rgb(0, 0, 0)" stroke="rgb(204, 204, 204)" stroke-width="1px"></line></g></g><g transform="translate(30, 0)" clip-path="url(#clip_0)"><clipPath id="clip_0"><rect width="795" height="378"></rect></clipPath><g><g><g><line x1="53.590683885350714" y1="0" x2="53.590683885350714" y2="378" fill="rgb(0, 0, 0)" stroke="rgb(60, 60, 60)" stroke-width="1px" opacity="0.25"></line><line x1="147.2823323925684" y1="0" x2="147.2823323925684" y2="378" fill="rgb(0, 0, 0)" stroke="rgb(60, 60, 60)" stroke-width="1px" opacity="0.25"></line><line x1="240.9739808997861" y1="0" x2="240.9739808997861" y2="378" fill="rgb(0, 0, 0)" stroke="rgb(60, 60, 60)" stroke-width="1px" opacity="0.25"></line><line x1="334.6656294070038" y1="0" x2="334.6656294070038" y2="378" fill="rgb(0, 0, 0)" stroke="rgb(60, 60, 60)" stroke-width="1px" opacity="0.25"></line><line x1="428.35727791422147" y1="0" x2="428.35727791422147" y2="378" fill="rgb(0, 0, 0)" stroke="rgb(60, 60, 60)" stroke-width="1px" opacity="0.25"></line><line x1="522.0489264214391" y1="0" x2="522.0489264214391" y2="378" fill="rgb(0, 0, 0)" stroke="rgb(60, 60, 60)" stroke-width="1px" opacity="0.25"></line><line x1="615.7405749286568" y1="0" x2="615.7405749286568" y2="378" fill="rgb(0, 0, 0)" stroke="rgb(60, 60, 60)" stroke-width="1px" opacity="0.25"></line><line x1="709.4322234358744" y1="0" x2="709.4322234358744" y2="378" fill="rgb(0, 0, 0)" stroke="rgb(60, 60, 60)" stroke-width="1px" opacity="0.25"></line></g><g><line x1="0" y1="356.2560098561918" x2="795" y2="356.2560098561918" fill="rgb(0, 0, 0)" stroke="rgb(60, 60, 60)" stroke-width="1px" opacity="0.25"></line><line x1="0" y1="322.84521444512706" x2="795" y2="322.84521444512706" fill="rgb(0, 0, 0)" stroke="rgb(60, 60, 60)" stroke-width="1px" opacity="0.25"></line><line x1="0" y1="289.4344190340622" x2="795" y2="289.4344190340622" fill="rgb(0, 0, 0)" stroke="rgb(60, 60, 60)" stroke-width="1px" opacity="0.25"></line><line x1="0" y1="256.0236236229975" x2="795" y2="256.0236236229975" fill="rgb(0, 0, 0)" stroke="rgb(60, 60, 60)" stroke-width="1px" opacity="0.25"></line><line x1="0" y1="222.6128282119327" x2="795" y2="222.6128282119327" fill="rgb(0, 0, 0)" stroke="rgb(60, 60, 60)" stroke-width="1px" opacity="0.25"></line><line x1="0" y1="189.20203280086793" x2="795" y2="189.20203280086793" fill="rgb(0, 0, 0)" stroke="rgb(60, 60, 60)" stroke-width="1px" opacity="0.25"></line><line x1="0" y1="155.79123738980317" x2="795" y2="155.79123738980317" fill="rgb(0, 0, 0)" stroke="rgb(60, 60, 60)" stroke-width="1px" opacity="0.25"></line><line x1="0" y1="122.38044197873839" x2="795" y2="122.38044197873839" fill="rgb(0, 0, 0)" stroke="rgb(60, 60, 60)" stroke-width="1px" opacity="0.25"></line><line x1="0" y1="88.96964656767364" x2="795" y2="88.96964656767364" fill="rgb(0, 0, 0)" stroke="rgb(60, 60, 60)" stroke-width="1px" opacity="0.25"></line><line x1="0" y1="55.558851156608824" x2="795" y2="55.558851156608824" fill="rgb(0, 0, 0)" stroke="rgb(60, 60, 60)" stroke-width="1px" opacity="0.25"></line><line x1="0" y1="22.148055745544056" x2="795" y2="22.148055745544056" fill="rgb(0, 0, 0)" stroke="rgb(60, 60, 60)" stroke-width="1px" opacity="0.25"></line></g></g></g><g><g><line x1="0" y1="389.66680526725656" x2="795" y2="389.66680526725656" fill="rgb(0, 0, 0)" stroke="rgb(153, 153, 153)" stroke-width="1.5px"></line></g></g><g><g><line x1="147.2823323925684" y1="0" x2="147.2823323925684" y2="378" fill="rgb(0, 0, 0)" stroke="rgb(153, 153, 153)" stroke-width="1.5px"></line></g></g><g><g><g><g><g><path stroke="rgb(0, 119, 187)" stroke-width="2px" d="M147.2823323925684,340.0273983955123L156.65149724329018,-941.2699151817276L166.02066209401195,246.95706572673848L175.38982694473373,341.8856336431011L184.7589917954555,333.343130778118L194.12815664617725,324.2459843850838L203.49732149689905,317.09159785924305L212.8664863476208,318.1812493308269L222.23565119834257,332.70445650723286L231.60481604906434,328.9287207995534L240.9739808997861,322.7514973449809L250.34314575050786,330.63855006037863L259.71231060122966,312.1343257033382L269.0814754519514,322.0561427488863L278.45064030267315,331.85161894727185L287.81980515339495,287.38813622309493L297.1889700041167,309.56323509730714L306.55813485483844,306.48901151384916L315.92729970556024,325.92005139167145L325.29646455628205,146.2007558972153L334.6656294070038,308.70471795448134L344.0347942577256,311.9853740624005L353.40395910844734,241.95380727086402L362.7731239591691,295.42345552455464L372.1422888098909,293.7597280671374L381.51145366061263,303.25677922673646L390.8806185113344,263.88395123248864L400.2497833620562,262.1245072705788L409.6189482127779,314.2768905873583L418.98811306349967,275.8330288675719L428.35727791422147,267.3415426764423L437.7264427649432,264.94666252279814L447.095607615665,293.09156059070267L456.46477246638676,295.76496334584346L465.8339373171085,260.19726469289526L475.2031021678303,295.983830412874L484.57226701855205,292.9284856672695L493.9414318692738,295.56847208283426L503.3105967199956,297.28780050574403L512.6797615707173,263.13021562262685L522.0489264214391,289.67402095971414L531.4180912721608,275.9431872847347L540.7872561228827,275.30102003055896L550.1564209736046,261.8913655717198L559.5255858243263,297.83269793332533L568.894750675048,277.6173658118835L578.2639155257698,263.1604297289468L587.6330803764915,260.1866861710938L597.0022452272133,241.63020646539567L606.371410077935,243.0159131638415" style="fill: none;" fill="none"></path></g><g><path stroke="rgb(255, 112, 67)" stroke-width="2px" d="M147.2823323925684,340.1989409158393L156.65149724329018,347.45217050476225L166.02066209401195,337.02401028277677L175.38982694473373,330.94450671992064L184.7589917954555,328.7844211591669L194.12815664617725,323.53289005401035L203.49732149689905,320.59073071222866L212.8664863476208,313.6777941670533L222.23565119834257,307.51269857350707L231.60481604906434,300.5452125424158L240.9739808997861,297.23905805476284L250.34314575050786,285.77025168206876L259.71231060122966,276.4433410700278L269.0814754519514,270.60536714538074L278.45064030267315,259.3310924601212L287.81980515339495,253.2396402657123L297.1889700041167,246.66929488441994L306.55813485483844,240.73184461921832L315.92729970556024,236.6954375655821L325.29646455628205,229.9325439696929L334.6656294070038,228.71521738708967L344.0347942577256,220.02582202867325L353.40395910844734,217.2860964026598L362.7731239591691,215.6243125893085L372.1422888098909,220.70611338325693L381.51145366061263,213.66597967232443L390.8806185113344,210.45340686699328L400.2497833620562,213.1766274499551L409.6189482127779,212.5600621303199L418.98811306349967,218.81349793981352L428.35727791422147,214.9320248086457L437.7264427649432,215.47622921559696L447.095607615665,216.82291964914555L456.46477246638676,218.2144413482804L465.8339373171085,220.35512631426946L475.2031021678303,223.72959511138723L484.57226701855205,225.42121864060312L493.9414318692738,223.92456491531206L503.3105967199956,223.7247041382049L512.6797615707173,215.51118294576617L522.0489264214391,214.01312724770625L531.4180912721608,221.30319446770665L540.7872561228827,223.77680017177528L550.1564209736046,216.95126388353177L559.5255858243263,220.87579988281595L568.894750675048,206.88854060895827L578.2639155257698,217.02744835831263L587.6330803764915,212.66967091043125L597.0022452272133,199.80110624858528L606.371410077935,205.18261058489637" style="fill: none;" fill="none"></path></g></g></g></g></g></g><g transform="translate(30, 378)" clip-path="url(#clip_1)"><clipPath id="clip_1"><rect width="795" height="22"></rect></clipPath><g><g><line x1="53.590683885350714" y1="0" x2="53.590683885350714" y2="5" style="visibility: inherit;" fill="rgb(0, 0, 0)" stroke="rgb(204, 204, 204)" stroke-width="1px"></line><line x1="147.2823323925684" y1="0" x2="147.2823323925684" y2="5" style="visibility: inherit;" fill="rgb(0, 0, 0)" stroke="rgb(204, 204, 204)" stroke-width="1px"></line><line x1="240.9739808997861" y1="0" x2="240.9739808997861" y2="5" style="visibility: inherit;" fill="rgb(0, 0, 0)" stroke="rgb(204, 204, 204)" stroke-width="1px"></line><line x1="334.6656294070038" y1="0" x2="334.6656294070038" y2="5" style="visibility: inherit;" fill="rgb(0, 0, 0)" stroke="rgb(204, 204, 204)" stroke-width="1px"></line><line x1="428.35727791422147" y1="0" x2="428.35727791422147" y2="5" style="visibility: inherit;" fill="rgb(0, 0, 0)" stroke="rgb(204, 204, 204)" stroke-width="1px"></line><line x1="522.0489264214391" y1="0" x2="522.0489264214391" y2="5" style="visibility: inherit;" fill="rgb(0, 0, 0)" stroke="rgb(204, 204, 204)" stroke-width="1px"></line><line x1="615.7405749286568" y1="0" x2="615.7405749286568" y2="5" style="visibility: inherit;" fill="rgb(0, 0, 0)" stroke="rgb(204, 204, 204)" stroke-width="1px"></line><line x1="709.4322234358744" y1="0" x2="709.4322234358744" y2="5" style="visibility: inherit;" fill="rgb(0, 0, 0)" stroke="rgb(204, 204, 204)" stroke-width="1px"></line></g><g transform="translate(0, 8)"><text x="53.590683885350714" y="0" dx="0em" dy="0.95em" style="text-anchor: middle; visibility: inherit; font-family: Roboto, sans-serif; font-size: 12px; font-weight: 200;" fill="rgb(50, 49, 63)" stroke="none" stroke-width="1px">-10</text><text x="147.2823323925684" y="0" dx="0em" dy="0.95em" style="text-anchor: middle; visibility: inherit; font-family: Roboto, sans-serif; font-size: 12px; font-weight: 200;" fill="rgb(50, 49, 63)" stroke="none" stroke-width="1px">0</text><text x="240.9739808997861" y="0" dx="0em" dy="0.95em" style="text-anchor: middle; visibility: inherit; font-family: Roboto, sans-serif; font-size: 12px; font-weight: 200;" fill="rgb(50, 49, 63)" stroke="none" stroke-width="1px">10</text><text x="334.6656294070038" y="0" dx="0em" dy="0.95em" style="text-anchor: middle; visibility: inherit; font-family: Roboto, sans-serif; font-size: 12px; font-weight: 200;" fill="rgb(50, 49, 63)" stroke="none" stroke-width="1px">20</text><text x="428.35727791422147" y="0" dx="0em" dy="0.95em" style="text-anchor: middle; visibility: inherit; font-family: Roboto, sans-serif; font-size: 12px; font-weight: 200;" fill="rgb(50, 49, 63)" stroke="none" stroke-width="1px">30</text><text x="522.0489264214391" y="0" dx="0em" dy="0.95em" style="text-anchor: middle; visibility: inherit; font-family: Roboto, sans-serif; font-size: 12px; font-weight: 200;" fill="rgb(50, 49, 63)" stroke="none" stroke-width="1px">40</text><text x="615.7405749286568" y="0" dx="0em" dy="0.95em" style="text-anchor: middle; visibility: inherit; font-family: Roboto, sans-serif; font-size: 12px; font-weight: 200;" fill="rgb(50, 49, 63)" stroke="none" stroke-width="1px">50</text><text x="709.4322234358744" y="0" dx="0em" dy="0.95em" style="text-anchor: middle; visibility: inherit; font-family: Roboto, sans-serif; font-size: 12px; font-weight: 200;" fill="rgb(50, 49, 63)" stroke="none" stroke-width="1px">60</text></g><line x1="0" y1="0" x2="795" y2="0" fill="rgb(0, 0, 0)" stroke="rgb(204, 204, 204)" stroke-width="1px"></line></g></g></g></g></svg>