<svg viewBox="0 0 825 400" xmlns="http://www.w3.org/2000/svg"><g><g><g><g><g><line x1="50" y1="353.6113693922931" x2="45" y2="353.6113693922931" style="visibility: inherit;" fill="rgb(0, 0, 0)" stroke="rgb(204, 204, 204)" stroke-width="1px"></line><line x1="50" y1="303.66467056217715" x2="45" y2="303.66467056217715" style="visibility: inherit;" fill="rgb(0, 0, 0)" stroke="rgb(204, 204, 204)" stroke-width="1px"></line><line x1="50" y1="253.71797173206113" x2="45" y2="253.71797173206113" style="visibility: inherit;" fill="rgb(0, 0, 0)" stroke="rgb(204, 204, 204)" stroke-width="1px"></line><line x1="50" y1="203.7712729019451" x2="45" y2="203.7712729019451" style="visibility: inherit;" fill="rgb(0, 0, 0)" stroke="rgb(204, 204, 204)" stroke-width="1px"></line><line x1="50" y1="153.8245740718291" x2="45" y2="153.8245740718291" style="visibility: inherit;" fill="rgb(0, 0, 0)" stroke="rgb(204, 204, 204)" stroke-width="1px"></line><line x1="50" y1="103.87787524171314" x2="45" y2="103.87787524171314" style="visibility: inherit;" fill="rgb(0, 0, 0)" stroke="rgb(204, 204, 204)" stroke-width="1px"></line><line x1="50" y1="53.93117641159706" x2="45" y2="53.93117641159706" style="visibility: inherit;" fill="rgb(0, 0, 0)" stroke="rgb(204, 204, 204)" stroke-width="1px"></line><line x1="50" y1="3.9844775814811006" x2="45" y2="3.9844775814811006" style="visibility: inherit;" fill="rgb(0, 0, 0)" stroke="rgb(204, 204, 204)" stroke-width="1px"></line></g><g transform="translate(40, 0)"><text x="0" y="353.6113693922931" dx="0em" dy="0.3em" style="text-anchor: end; visibility: inherit; font-family: Roboto, sans-serif; font-size: 12px; font-weight: 200;" fill="rgb(50, 49, 63)" stroke="none" stroke-width="1px">0.04</text><text x="0" y="303.66467056217715" dx="0em" dy="0.3em" style="text-anchor: end; visibility: inherit; font-family: Roboto, sans-serif; font-size: 12px; font-weight: 200;" fill="rgb(50, 49, 63)" stroke="none" stroke-width="1px">0.05</text><text x="0" y="253.71797173206113" dx="0em" dy="0.3em" style="text-anchor: end; visibility: inherit; font-family: Roboto, sans-serif; font-size: 12px; font-weight: 200;" fill="rgb(50, 49, 63)" stroke="none" stroke-width="1px">0.06</text><text x="0" y="203.7712729019451" dx="0em" dy="0.3em" style="text-anchor: end; visibility: inherit; font-family: Roboto, sans-serif; font-size: 12px; font-weight: 200;" fill="rgb(50, 49, 63)" stroke="none" stroke-width="1px">0.07</text><text x="0" y="153.8245740718291" dx="0em" dy="0.3em" style="text-anchor: end; visibility: inherit; font-family: Roboto, sans-serif; font-size: 12px; font-weight: 200;" fill="rgb(50, 49, 63)" stroke="none" stroke-width="1px">0.08</text><text x="0" y="103.87787524171314" dx="0em" dy="0.3em" style="text-anchor: end; visibility: inherit; font-family: Roboto, sans-serif; font-size: 12px; font-weight: 200;" fill="rgb(50, 49, 63)" stroke="none" stroke-width="1px">0.09</text><text x="0" y="53.93117641159706" dx="0em" dy="0.3em" style="text-anchor: end; visibility: inherit; font-family: Roboto, sans-serif; font-size: 12px; font-weight: 200;" fill="rgb(50, 49, 63)" stroke="none" stroke-width="1px">0.1</text><text x="0" y="3.9844775814811006" dx="0em" dy="0.3em" style="text-anchor: end; visibility: hidden; font-family: Roboto, sans-serif; font-size: 12px; font-weight: 200;" fill="rgb(50, 49, 63)" stroke="none" stroke-width="1px">0.11</text></g><line x1="50" y1="0" x2="50" y2="378" fill="rgb(0, 0, 0)" stroke="rgb(204, 204, 204)" stroke-width="1px"></line></g></g><g transform="translate(50, 0)" clip-path="url(#clip_0)"><clipPath id="clip_0"><rect width="775" height="378"></rect></clipPath><g><g><g><line x1="17.63613984190917" y1="0" x2="17.63613984190917" y2="378" fill="rgb(0, 0, 0)" stroke="rgb(60, 60, 60)" stroke-width="1px" opacity="0.25"></line><line x1="94.43909935250225" y1="0" x2="94.43909935250225" y2="378" fill="rgb(0, 0, 0)" stroke="rgb(60, 60, 60)" stroke-width="1px" opacity="0.25"></line><line x1="171.24205886309534" y1="0" x2="171.24205886309534" y2="378" fill="rgb(0, 0, 0)" stroke="rgb(60, 60, 60)" stroke-width="1px" opacity="0.25"></line><line x1="248.04501837368846" y1="0" x2="248.04501837368846" y2="378" fill="rgb(0, 0, 0)" stroke="rgb(60, 60, 60)" stroke-width="1px" opacity="0.25"></line><line x1="324.84797788428153" y1="0" x2="324.84797788428153" y2="378" fill="rgb(0, 0, 0)" stroke="rgb(60, 60, 60)" stroke-width="1px" opacity="0.25"></line><line x1="401.65093739487463" y1="0" x2="401.65093739487463" y2="378" fill="rgb(0, 0, 0)" stroke="rgb(60, 60, 60)" stroke-width="1px" opacity="0.25"></line><line x1="478.4538969054676" y1="0" x2="478.4538969054676" y2="378" fill="rgb(0, 0, 0)" stroke="rgb(60, 60, 60)" stroke-width="1px" opacity="0.25"></line><line x1="555.2568564160607" y1="0" x2="555.2568564160607" y2="378" fill="rgb(0, 0, 0)" stroke="rgb(60, 60, 60)" stroke-width="1px" opacity="0.25"></line><line x1="632.0598159266539" y1="0" x2="632.0598159266539" y2="378" fill="rgb(0, 0, 0)" stroke="rgb(60, 60, 60)" stroke-width="1px" opacity="0.25"></line><line x1="708.8627754372469" y1="0" x2="708.8627754372469" y2="378" fill="rgb(0, 0, 0)" stroke="rgb(60, 60, 60)" stroke-width="1px" opacity="0.25"></line></g><g><line x1="0" y1="353.6113693922931" x2="775" y2="353.6113693922931" fill="rgb(0, 0, 0)" stroke="rgb(60, 60, 60)" stroke-width="1px" opacity="0.25"></line><line x1="0" y1="303.66467056217715" x2="775" y2="303.66467056217715" fill="rgb(0, 0, 0)" stroke="rgb(60, 60, 60)" stroke-width="1px" opacity="0.25"></line><line x1="0" y1="253.71797173206113" x2="775" y2="253.71797173206113" fill="rgb(0, 0, 0)" stroke="rgb(60, 60, 60)" stroke-width="1px" opacity="0.25"></line><line x1="0" y1="203.7712729019451" x2="775" y2="203.7712729019451" fill="rgb(0, 0, 0)" stroke="rgb(60, 60, 60)" stroke-width="1px" opacity="0.25"></line><line x1="0" y1="153.8245740718291" x2="775" y2="153.8245740718291" fill="rgb(0, 0, 0)" stroke="rgb(60, 60, 60)" stroke-width="1px" opacity="0.25"></line><line x1="0" y1="103.87787524171314" x2="775" y2="103.87787524171314" fill="rgb(0, 0, 0)" stroke="rgb(60, 60, 60)" stroke-width="1px" opacity="0.25"></line><line x1="0" y1="53.93117641159706" x2="775" y2="53.93117641159706" fill="rgb(0, 0, 0)" stroke="rgb(60, 60, 60)" stroke-width="1px" opacity="0.25"></line><line x1="0" y1="3.9844775814811006" x2="775" y2="3.9844775814811006" fill="rgb(0, 0, 0)" stroke="rgb(60, 60, 60)" stroke-width="1px" opacity="0.25"></line></g></g></g><g><g><line x1="0" y1="553.3981647127572" x2="775" y2="553.3981647127572" fill="rgb(0, 0, 0)" stroke="rgb(153, 153, 153)" stroke-width="1.5px"></line></g></g><g><g><line x1="94.43909935250225" y1="0" x2="94.43909935250225" y2="378" fill="rgb(0, 0, 0)" stroke="rgb(153, 153, 153)" stroke-width="1.5px"></line></g></g><g><g><g><g><g><path style="fill: none;" stroke="rgb(0, 119, 187)" stroke-width="2px" d="M94.43909935250225,228.39360219906396L102.11939530356155,295.99456311013313L109.79969125462087,84.09160398074518L117.47998720568017,275.19426887646534L125.16028315673948,295.99456311013313L132.8405791077988,171.19283492131686L140.5208750588581,204.99327816366093L148.2011710099174,230.9936506073945L155.8814669609767,223.19354259559347L163.56176291203602,206.29332097442145L171.24205886309534,143.89241966682278L178.92235481415463,276.4942930806306L186.60265076521392,221.89353699802348L194.28294671627324,256.99402305112807L201.96324266733257,289.4944793024974L209.64353861839186,207.59332657199147L217.32383456945115,260.89407705702854L225.00413052051047,216.69344018136246L232.68442647156982,305.0946953260994L240.36472242262911,237.49375302162548L248.04501837368846,249.19391503932704L255.72531432474776,320.69491134970144L263.4056102758071,328.49501936150244L271.08590622686637,266.09413666049903L278.76620217792566,256.99402305112807L286.44649812898496,279.0943228823658L294.12679408004425,297.2945873142984L301.8070900311036,303.79467112193413L309.4873859821629,297.2945873142984L317.1676819332222,308.9947493319999L324.84797788428153,263.49410685876376L332.5282738353408,256.99402305112807L340.2085697864001,358.39542720454125L347.8888657374594,295.99456311013313L355.56916168851876,315.49483313963566L363.24945763957805,294.6945389059679L370.92975359063735,372.6956376305733L378.61004954169664,312.89480333790044L386.290345492756,299.8946171160336L393.97064144381534,303.79467112193413L401.65093739487463,294.6945389059679L409.3312333459339,299.8946171160336L417.0115292969932,295.99456311013313L424.6918252480525,329.7950435656677L432.3721211991118,256.99402305112807L440.05241715017115,297.2945873142984L447.73271310123044,308.9947493319999L455.41300905228974,295.99456311013313L463.09330500334903,332.3950733674029L470.7736009544083,295.99456311013313" fill="none"></path></g><g><path style="fill: none;" stroke="rgb(255, 112, 67)" stroke-width="2px" d="M102.11939530356155,-385.89461846289504L109.79969125462087,11.713250884113585L117.47998720568017,171.9849921078822L125.16028315673948,244.58191687902362L132.8405791077988,243.46505599858997L140.5208750588581,168.63435364679543L148.2011710099174,203.2575061051204L155.8814669609767,235.64689958938754L163.56176291203602,237.3222374265262L171.24205886309534,229.50408101732373L178.92235481415463,242.9066162550755L186.60265076521392,284.7894667724932L194.28294671627324,272.5038296283656L201.96324266733257,274.17914885890895L209.64353861839186,250.16631431416823L217.32383456945115,266.36101105630183L225.00413052051047,293.16604431861487L232.68442647156982,286.46478600303664L240.36472242262911,278.6466482004294L248.04501837368846,280.3219674309728L255.72531432474776,298.7504231471642L263.4056102758071,288.1400866269847L271.08590622686637,284.23102702897876L278.76620217792566,248.49099508362485L286.44649812898496,270.2700706543078L294.12679408004425,304.33480197571356L301.8070900311036,285.3479065160077L309.4873859821629,283.1141475419498L317.1676819332222,287.0232257465511L324.84797788428153,290.3738456010426L332.5282738353408,269.71163091079336L340.2085697864001,295.9582244295919L347.8888657374594,312.71136091523994L355.56916168851876,276.4128892263716L363.24945763957805,304.33480197571356L370.92975359063735,291.4907250880715L378.61004954169664,303.2179224886846L386.290345492756,276.97132896988603L393.97064144381534,297.6335436601353L401.65093739487463,308.80230131723397L409.3312333459339,304.33480197571356L417.0115292969932,285.90634625952214L424.6918252480525,298.1919834036497L432.3721211991118,280.8804071744873L440.05241715017115,301.54260325814124L447.73271310123044,303.2179224886846L455.41300905228974,298.1919834036497L463.09330500334903,290.93228534455704L470.7736009544083,297.6335436601353" fill="none"></path></g></g></g></g></g></g><g transform="translate(50, 378)" clip-path="url(#clip_1)"><clipPath id="clip_1"><rect width="775" height="22"></rect></clipPath><g><g><line x1="17.63613984190917" y1="0" x2="17.63613984190917" y2="5" style="visibility: inherit;" fill="rgb(0, 0, 0)" stroke="rgb(204, 204, 204)" stroke-width="1px"></line><line x1="94.43909935250225" y1="0" x2="94.43909935250225" y2="5" style="visibility: inherit;" fill="rgb(0, 0, 0)" stroke="rgb(204, 204, 204)" stroke-width="1px"></line><line x1="171.24205886309534" y1="0" x2="171.24205886309534" y2="5" style="visibility: inherit;" fill="rgb(0, 0, 0)" stroke="rgb(204, 204, 204)" stroke-width="1px"></line><line x1="248.04501837368846" y1="0" x2="248.04501837368846" y2="5" style="visibility: inherit;" fill="rgb(0, 0, 0)" stroke="rgb(204, 204, 204)" stroke-width="1px"></line><line x1="324.84797788428153" y1="0" x2="324.84797788428153" y2="5" style="visibility: inherit;" fill="rgb(0, 0, 0)" stroke="rgb(204, 204, 204)" stroke-width="1px"></line><line x1="401.65093739487463" y1="0" x2="401.65093739487463" y2="5" style="visibility: inherit;" fill="rgb(0, 0, 0)" stroke="rgb(204, 204, 204)" stroke-width="1px"></line><line x1="478.4538969054676" y1="0" x2="478.4538969054676" y2="5" style="visibility: inherit;" fill="rgb(0, 0, 0)" stroke="rgb(204, 204, 204)" stroke-width="1px"></line><line x1="555.2568564160607" y1="0" x2="555.2568564160607" y2="5" style="visibility: inherit;" fill="rgb(0, 0, 0)" stroke="rgb(204, 204, 204)" stroke-width="1px"></line><line x1="632.0598159266539" y1="0" x2="632.0598159266539" y2="5" style="visibility: inherit;" fill="rgb(0, 0, 0)" stroke="rgb(204, 204, 204)" stroke-width="1px"></line><line x1="708.8627754372469" y1="0" x2="708.8627754372469" y2="5" style="visibility: inherit;" fill="rgb(0, 0, 0)" stroke="rgb(204, 204, 204)" stroke-width="1px"></line></g><g transform="translate(0, 8)"><text x="17.63613984190917" y="0" dx="0em" dy="0.95em" style="text-anchor: middle; visibility: inherit; font-family: Roboto, sans-serif; font-size: 12px; font-weight: 200;" fill="rgb(50, 49, 63)" stroke="none" stroke-width="1px">-10</text><text x="94.43909935250225" y="0" dx="0em" dy="0.95em" style="text-anchor: middle; visibility: inherit; font-family: Roboto, sans-serif; font-size: 12px; font-weight: 200;" fill="rgb(50, 49, 63)" stroke="none" stroke-width="1px">0</text><text x="171.24205886309534" y="0" dx="0em" dy="0.95em" style="text-anchor: middle; visibility: inherit; font-family: Roboto, sans-serif; font-size: 12px; font-weight: 200;" fill="rgb(50, 49, 63)" stroke="none" stroke-width="1px">10</text><text x="248.04501837368846" y="0" dx="0em" dy="0.95em" style="text-anchor: middle; visibility: inherit; font-family: Roboto, sans-serif; font-size: 12px; font-weight: 200;" fill="rgb(50, 49, 63)" stroke="none" stroke-width="1px">20</text><text x="324.84797788428153" y="0" dx="0em" dy="0.95em" style="text-anchor: middle; visibility: inherit; font-family: Roboto, sans-serif; font-size: 12px; font-weight: 200;" fill="rgb(50, 49, 63)" stroke="none" stroke-width="1px">30</text><text x="401.65093739487463" y="0" dx="0em" dy="0.95em" style="text-anchor: middle; visibility: inherit; font-family: Roboto, sans-serif; font-size: 12px; font-weight: 200;" fill="rgb(50, 49, 63)" stroke="none" stroke-width="1px">40</text><text x="478.4538969054676" y="0" dx="0em" dy="0.95em" style="text-anchor: middle; visibility: inherit; font-family: Roboto, sans-serif; font-size: 12px; font-weight: 200;" fill="rgb(50, 49, 63)" stroke="none" stroke-width="1px">50</text><text x="555.2568564160607" y="0" dx="0em" dy="0.95em" style="text-anchor: middle; visibility: inherit; font-family: Roboto, sans-serif; font-size: 12px; font-weight: 200;" fill="rgb(50, 49, 63)" stroke="none" stroke-width="1px">60</text><text x="632.0598159266539" y="0" dx="0em" dy="0.95em" style="text-anchor: middle; visibility: inherit; font-family: Roboto, sans-serif; font-size: 12px; font-weight: 200;" fill="rgb(50, 49, 63)" stroke="none" stroke-width="1px">70</text><text x="708.8627754372469" y="0" dx="0em" dy="0.95em" style="text-anchor: middle; visibility: inherit; font-family: Roboto, sans-serif; font-size: 12px; font-weight: 200;" fill="rgb(50, 49, 63)" stroke="none" stroke-width="1px">80</text></g><line x1="0" y1="0" x2="775" y2="0" fill="rgb(0, 0, 0)" stroke="rgb(204, 204, 204)" stroke-width="1px"></line></g></g></g></g></svg>